<?xml version="1.0" standalone="no"?>
<!DOCTYPE svg PUBLIC "-//W3C//DTD SVG 20010904//EN"
 "http://www.w3.org/TR/2001/REC-SVG-20010904/DTD/svg10.dtd">
<svg version="1.0" xmlns="http://www.w3.org/2000/svg"
 width="512.000000pt" height="512.000000pt" viewBox="0 0 512.000000 512.000000"
 preserveAspectRatio="xMidYMid meet">

<g transform="translate(0.000000,512.000000) scale(0.100000,-0.100000)"
fill="#000000" stroke="none">
<path d="M2375 4226 c-296 -50 -516 -166 -725 -383 -110 -114 -170 -200 -240
-344 -103 -215 -130 -368 -129 -744 l0 -260 20 52 c34 88 106 156 223 213 56
27 113 52 129 56 l27 6 0 -103 c0 -57 5 -121 10 -141 17 -59 69 -120 129 -150
54 -28 56 -28 260 -28 195 0 209 1 257 24 28 13 65 41 82 62 53 64 62 108 62
296 l0 168 80 0 80 0 0 -167 c0 -93 5 -185 10 -205 17 -59 69 -120 129 -150
54 -28 56 -28 260 -28 195 0 209 1 257 24 28 13 65 41 82 62 51 62 62 109 62
274 l0 147 40 18 40 18 0 67 0 67 -67 31 c-223 101 -434 116 -653 47 -63 -20
-128 -35 -144 -33 -29 3 -27 5 55 75 135 114 223 231 253 337 44 153 46 382 5
492 -32 85 -104 153 -195 183 -86 29 -277 37 -399 17z"/>
<path d="M1280 2212 c-7 -168 -48 -326 -131 -500 -74 -156 -131 -241 -233
-349 l-81 -86 100 5 c76 4 115 11 163 30 34 14 62 24 62 23 0 -24 -166 -400
-311 -704 l-88 -186 180 -3 179 -2 0 -220 0 -220 1440 0 1440 0 0 209 c0 227
-10 298 -54 408 -33 80 -62 124 -133 203 -122 137 -201 182 -443 254 -63 19
-174 53 -246 75 -72 23 -139 41 -148 41 -14 0 -16 -17 -16 -130 0 -143 -11
-213 -45 -280 -78 -154 -254 -242 -422 -211 -136 25 -236 103 -297 231 l-31
65 -3 283 -4 283 -69 34 c-132 64 -265 160 -344 247 -102 113 -200 274 -239
394 -17 51 -17 51 -67 57 -28 4 -75 17 -105 31 -30 14 -54 22 -54 18z"/>
<path d="M2320 2021 c0 -79 22 -137 72 -188 94 -96 242 -96 336 0 50 51 72
109 72 188 l0 59 -240 0 -240 0 0 -59z"/>
</g>
</svg>
